<?xml version="1.0" standalone="no"?>
<!DOCTYPE svg PUBLIC "-//W3C//DTD SVG 20010904//EN"
 "http://www.w3.org/TR/2001/REC-SVG-20010904/DTD/svg10.dtd">
<svg version="1.0" xmlns="http://www.w3.org/2000/svg"
 width="80px" height="65px" viewBox="0 0 130.000000 115.000000"
 preserveAspectRatio="xMidYMid meet">
<metadata>
Created by potrace 1.16, written by Peter Selinger 2001-2019
</metadata>
<g transform="translate(0.000000,115.000000) scale(0.100000,-0.100000)"
fill="#ce361be8" stroke="none">
<path d="M589 939 c-274 -93 -439 -156 -444 -168 -3 -8 0 -20 7 -27 7 -7 128
-53 269 -102 l255 -91 255 91 c140 50 260 96 267 102 21 20 4 41 -46 58 -26 9
-119 41 -207 72 -88 32 -185 65 -216 75 l-56 18 -84 -28z"/>
<path d="M1093 630 c-22 -9 -23 -14 -23 -129 0 -95 -4 -126 -17 -150 -17 -30
-17 -32 0 -62 12 -21 17 -52 17 -103 0 -79 14 -112 43 -100 14 5 17 20 17 94
0 66 4 91 15 100 19 16 19 59 0 84 -11 15 -15 51 -15 148 0 70 -3 128 -7 127
-5 0 -18 -4 -30 -9z"/>
<path d="M367 584 c-4 -4 -7 -35 -7 -70 0 -89 24 -115 131 -144 161 -43 402
-19 472 47 25 24 27 33 27 100 0 40 -4 73 -9 73 -5 0 -22 -5 -38 -11 -88 -35
-250 -89 -268 -89 -16 0 -204 62 -286 94 -8 4 -18 3 -22 0z"/>
</g>
</svg>
